<svg xmlns="http://www.w3.org/2000/svg" xmlns:xlink="http://www.w3.org/1999/xlink" viewBox="0,0,256,256" width="50px" height="50px" fill-rule="nonzero"><g fill="#1c1c1c" fill-rule="nonzero" stroke="none" stroke-width="1" stroke-linecap="butt" stroke-linejoin="miter" stroke-miterlimit="10" stroke-dasharray="" stroke-dashoffset="0" font-family="none" font-weight="none" font-size="none" text-anchor="none" style="mix-blend-mode: normal"><g transform="scale(5.12,5.12)"><path d="M25,2c-7.16797,0 -13,5.83203 -13,13c0,9.52344 11.70703,24.95703 12.20313,25.60938l0.79688,1.03516l0.79688,-1.03516c0.49609,-0.65234 12.20313,-16.08594 12.20313,-25.60937c0,-7.16797 -5.83203,-13 -13,-13zM25,11c2.21094,0 4,1.78906 4,4c0,2.21094 -1.78906,4 -4,4c-2.21094,0 -4,-1.78906 -4,-4c0,-2.21094 1.78906,-4 4,-4zM7.29688,32l-5.71875,16h46.84375l-5.71875,-16h-7.65234c-0.39062,0.6875 -0.78125,1.35547 -1.17187,2h7.41797l4.28125,12h-41.15625l4.28125,-12h7.41797c-0.39062,-0.64453 -0.78125,-1.3125 -1.17187,-2z"></path></g></g></svg>